<svg width="57" height="57" viewBox="0 0 57 57" fill="none" xmlns="http://www.w3.org/2000/svg">
<circle cx="28.5" cy="28.5" r="28" fill="#0F151B" stroke="#2A3A49"/>
<path d="M23.666 33.002C27.734 30.182 29.768 27.842 29.768 25.982C29.768 25.418 29.63 24.974 29.354 24.65C29.09 24.326 28.67 24.164 28.094 24.164C26.906 24.164 26.276 24.974 26.204 26.594H23.738C23.81 25.094 24.266 23.96 25.106 23.192C25.946 22.412 27.008 22.022 28.292 22.022C29.6 22.022 30.602 22.364 31.298 23.048C32.006 23.72 32.36 24.62 32.36 25.748C32.36 26.636 32.096 27.53 31.568 28.43C31.052 29.318 30.392 30.14 29.588 30.896C28.784 31.64 27.938 32.282 27.05 32.822H32.612V34.892H23.666V33.002Z" fill="#606D79"/>
</svg>
