<svg width="57" height="57" viewBox="0 0 57 57" fill="none" xmlns="http://www.w3.org/2000/svg">
<circle cx="28.5" cy="28.5" r="28" fill="#0F151B" stroke="#2A3A49"/>
<path d="M28.418 21.806C29.282 21.806 30.02 21.956 30.632 22.256C31.256 22.556 31.724 22.97 32.036 23.498C32.36 24.026 32.522 24.614 32.522 25.262C32.522 26.078 32.3 26.75 31.856 27.278C31.412 27.794 30.824 28.112 30.092 28.232V28.322C31.868 28.85 32.756 29.894 32.756 31.454C32.756 32.546 32.39 33.434 31.658 34.118C30.926 34.79 29.894 35.126 28.562 35.126C27.146 35.126 26.018 34.778 25.178 34.082C24.338 33.374 23.87 32.312 23.774 30.896H26.258C26.318 31.544 26.528 32.06 26.888 32.444C27.26 32.816 27.782 33.002 28.454 33.002C29.03 33.002 29.48 32.846 29.804 32.534C30.128 32.21 30.29 31.79 30.29 31.274C30.29 30.662 30.056 30.194 29.588 29.87C29.12 29.546 28.43 29.384 27.518 29.384H26.996V27.314H27.518C29.198 27.338 30.038 26.756 30.038 25.568C30.038 25.052 29.888 24.65 29.588 24.362C29.288 24.062 28.88 23.912 28.364 23.912C27.824 23.912 27.38 24.086 27.032 24.434C26.684 24.77 26.486 25.244 26.438 25.856H23.954C24.026 24.56 24.446 23.564 25.214 22.868C25.982 22.16 27.05 21.806 28.418 21.806Z" fill="#606D79"/>
</svg>
