<svg width="14" height="14" viewBox="0 0 14 14" fill="none" xmlns="http://www.w3.org/2000/svg">
<path d="M13.397 1.05414e-06H0.603134C0.377342 -0.00041535 0.170473 0.122562 0.0673229 0.31841C-0.0372498 0.516895 -0.0188962 0.75591 0.114701 0.937184L4.80184 7.37879C4.8034 7.38101 4.80511 7.38309 4.80667 7.38531C4.97698 7.60961 5.06917 7.88139 5.0696 8.16051V13.4123C5.0686 13.5678 5.13121 13.7173 5.24346 13.8276C5.35586 13.9378 5.50866 14 5.66801 14C5.74897 13.9999 5.82921 13.9842 5.90405 13.9538L8.53786 12.9741C8.77375 12.9038 8.9304 12.6865 8.9304 12.425V8.16051C8.93083 7.88139 9.02302 7.60961 9.19318 7.38531C9.19475 7.38309 9.19646 7.38101 9.19802 7.37879L13.8853 0.937045C14.0189 0.75591 14.0372 0.517034 13.9327 0.318549C13.8297 0.122562 13.6227 -0.00041535 13.397 1.05414e-06Z" fill="#394452"/>
</svg>
