<svg width="25" height="17" viewBox="0 0 25 17" fill="none" xmlns="http://www.w3.org/2000/svg">
<path d="M24.9866 11.6456C24.9243 10.2133 24.6752 8.62521 24.3015 7.13056C23.9279 5.69818 23.4608 4.35923 22.9003 3.33165C20.7206 -0.498387 18.3541 0.0932452 15.5205 0.84057C14.6174 1.05854 13.6521 1.30765 12.6557 1.40106H12.3443C11.3479 1.30765 10.3826 1.05854 9.47957 0.84057C6.64596 0.124384 4.27942 -0.498387 2.09972 3.36279C1.53923 4.39037 1.04101 5.72932 0.698486 7.1617C0.324823 8.65635 0.0757145 10.2444 0.0134373 11.6768C-0.0488399 13.2649 0.106853 14.417 0.449377 15.2266C0.791902 15.9739 1.29012 16.441 1.94403 16.6278C2.53566 16.7835 3.22071 16.7212 3.9369 16.4098C5.1513 15.9116 6.55254 14.8529 7.92264 13.5762C8.88793 12.6421 10.694 12.175 12.5 12.175C14.306 12.175 16.1121 12.6421 17.0774 13.5762C18.4475 14.8529 19.8487 15.9116 21.0631 16.4098C21.7793 16.6901 22.4644 16.7835 23.056 16.6278C23.6788 16.441 24.2081 16.005 24.5506 15.1954C24.8932 14.417 25.0489 13.2649 24.9866 11.6456ZM23.4919 14.7595C23.3051 15.1954 23.056 15.4446 22.7446 15.538C22.4021 15.6314 21.9661 15.5691 21.4679 15.3823C20.3781 14.9463 19.1014 13.981 17.8558 12.7978C16.6726 11.6145 14.5863 11.0229 12.5 11.0229C10.4137 11.0229 8.32744 11.6145 7.11303 12.7355C5.83635 13.9188 4.55967 14.9152 3.50096 15.32C3.00274 15.5068 2.5668 15.6002 2.22428 15.4757C1.91289 15.3823 1.66378 15.1332 1.47695 14.6972C1.22784 14.1056 1.10329 13.1403 1.16556 11.7079C1.22784 10.369 1.44581 8.84318 1.81947 7.4108C2.162 6.07185 2.59794 4.8263 3.1273 3.89215C4.83992 0.809432 6.83279 1.30765 9.19932 1.93042C10.1646 2.17953 11.161 2.42864 12.2509 2.52205C12.282 2.52205 12.282 2.52205 12.3132 2.52205H12.6557C12.6868 2.52205 12.6868 2.52205 12.718 2.52205C13.839 2.42864 14.8354 2.17953 15.8007 1.93042C18.1672 1.33879 20.1601 0.809432 21.8727 3.89215C22.4021 4.8263 22.838 6.04071 23.1805 7.4108C23.5231 8.84318 23.7722 10.3378 23.8345 11.7079C23.8967 13.1403 23.7722 14.1056 23.4919 14.7595Z" fill="white"/>
<path d="M9.63525 5.57363C9.32387 5.29339 8.9502 5.07542 8.51426 5.04428C8.48312 4.63948 8.29629 4.23468 8.01605 3.95443L7.98491 3.92329C7.64238 3.58077 7.20644 3.39393 6.70822 3.39393C6.21001 3.39393 5.74293 3.6119 5.43154 3.92329C5.1513 4.20354 4.93333 4.60834 4.90219 5.04428C4.46625 5.07542 4.09258 5.26225 3.7812 5.5425L3.75006 5.57363C3.40753 5.91616 3.2207 6.3521 3.2207 6.85032C3.2207 7.34853 3.43867 7.81561 3.75006 8.127C4.06144 8.43838 4.43511 8.62522 4.90219 8.65635C4.93333 9.09229 5.12016 9.4971 5.43154 9.77734C5.77407 10.1199 6.21001 10.3067 6.70822 10.3067C7.20644 10.3067 7.67352 10.0887 7.98491 9.77734C8.26515 9.46596 8.48312 9.09229 8.51426 8.65635C8.9502 8.62522 9.355 8.43838 9.63525 8.127C9.97778 7.78447 10.1646 7.34853 10.1646 6.85032C10.1646 6.3521 9.94664 5.88502 9.63525 5.57363ZM8.85679 7.31739C8.73223 7.44195 8.57654 7.50423 8.38971 7.50423H7.95377C7.64238 7.50423 7.36213 7.75333 7.36213 8.09586V8.50066C7.36213 8.68749 7.29986 8.84319 7.1753 8.96774C7.05075 9.09229 6.89506 9.15457 6.70822 9.15457C6.52139 9.15457 6.3657 9.09229 6.24115 8.96774C6.11659 8.84319 6.05431 8.68749 6.05431 8.50066V8.06472C6.05431 7.75334 5.80521 7.47309 5.46268 7.47309H5.02674C4.83991 7.47309 4.68422 7.41081 4.55966 7.28626C4.46625 7.19284 4.37283 7.03715 4.37283 6.85032C4.37283 6.66348 4.43511 6.50779 4.55966 6.38324C4.55966 6.38324 4.55966 6.38324 4.5908 6.3521C4.71536 6.25868 4.87105 6.19641 5.02674 6.19641H5.46268C5.77407 6.19641 6.05431 5.9473 6.05431 5.60477V5.16883C6.05431 4.982 6.11659 4.82631 6.24115 4.70175C6.3657 4.5772 6.52139 4.51492 6.70822 4.51492C6.89506 4.51492 7.05075 4.5772 7.1753 4.70175C7.1753 4.70175 7.1753 4.70175 7.20644 4.73289C7.29986 4.85745 7.36213 5.01314 7.36213 5.16883V5.60477C7.36213 5.91616 7.61124 6.19641 7.95377 6.19641H8.38971C8.57654 6.19641 8.73223 6.25868 8.85679 6.38324C8.98134 6.50779 9.04362 6.66348 9.04362 6.85032C9.04362 7.03715 8.98134 7.19284 8.85679 7.31739Z" fill="white"/>
<path d="M17.9181 5.72932C18.52 5.72932 19.0079 5.24138 19.0079 4.63947C19.0079 4.03757 18.52 3.54963 17.9181 3.54963C17.3162 3.54963 16.8282 4.03757 16.8282 4.63947C16.8282 5.24138 17.3162 5.72932 17.9181 5.72932Z" fill="white"/>
<path d="M17.9181 10.151C18.52 10.151 19.0079 9.66306 19.0079 9.06116C19.0079 8.45925 18.52 7.97131 17.9181 7.97131C17.3162 7.97131 16.8282 8.45925 16.8282 9.06116C16.8282 9.66306 17.3162 10.151 17.9181 10.151Z" fill="white"/>
<path d="M15.7073 7.94017C16.3092 7.94017 16.7971 7.45223 16.7971 6.85032C16.7971 6.24841 16.3092 5.76047 15.7073 5.76047C15.1054 5.76047 14.6174 6.24841 14.6174 6.85032C14.6174 7.45223 15.1054 7.94017 15.7073 7.94017Z" fill="white"/>
<path d="M20.1289 7.94017C20.7308 7.94017 21.2188 7.45223 21.2188 6.85032C21.2188 6.24841 20.7308 5.76047 20.1289 5.76047C19.527 5.76047 19.0391 6.24841 19.0391 6.85032C19.0391 7.45223 19.527 7.94017 20.1289 7.94017Z" fill="white"/>
</svg>
