<svg width="18" height="21" viewBox="0 0 18 21" fill="none" xmlns="http://www.w3.org/2000/svg">
<path d="M8.85529 11.3154C8.87704 11.3154 8.89878 11.3154 8.92487 11.3154C8.93357 11.3154 8.94227 11.3154 8.95096 11.3154C8.96401 11.3154 8.9814 11.3154 8.99445 11.3154C10.2686 11.2936 11.2993 10.8457 12.0603 9.98902C13.7346 8.10168 13.4562 4.86623 13.4258 4.55747C13.3171 2.23959 12.2212 1.13067 11.3167 0.61317C10.6426 0.226134 9.8555 0.0173949 8.97706 0H8.94662C8.94227 0 8.93357 0 8.92922 0H8.90313C8.42042 0 7.4724 0.0782771 6.56351 0.595776C5.65028 1.11327 4.53701 2.2222 4.42829 4.55747C4.39785 4.86623 4.11953 8.10168 5.79379 9.98902C6.55047 10.8457 7.58112 11.2936 8.85529 11.3154ZM5.5894 4.66618C5.5894 4.65314 5.59375 4.64009 5.59375 4.63139C5.73726 1.51336 7.95076 1.1785 8.89878 1.1785H8.91617C8.92487 1.1785 8.93792 1.1785 8.95096 1.1785C10.1251 1.2046 12.1212 1.68296 12.256 4.63139C12.256 4.64444 12.256 4.65749 12.2603 4.66618C12.2647 4.69662 12.5691 7.65376 11.1862 9.2106C10.6383 9.82812 9.90768 10.1325 8.94662 10.1412C8.93792 10.1412 8.93357 10.1412 8.92487 10.1412C8.91617 10.1412 8.91183 10.1412 8.90313 10.1412C7.94641 10.1325 7.21147 9.82812 6.66788 9.2106C5.28934 7.66246 5.58505 4.69228 5.5894 4.66618Z" fill="#E0F0FF"/>
<path d="M17.8614 16.6817C17.8614 16.6774 17.8614 16.673 17.8614 16.6687C17.8614 16.6339 17.8571 16.5991 17.8571 16.56C17.831 15.6989 17.7744 13.6854 15.8871 13.0418C15.874 13.0375 15.8566 13.0331 15.8436 13.0288C13.8823 12.5287 12.2515 11.398 12.2342 11.385C11.9689 11.198 11.6036 11.2632 11.4166 11.5285C11.2296 11.7937 11.2948 12.159 11.5601 12.346C11.634 12.3982 13.3648 13.6028 15.5305 14.1595C16.5437 14.5204 16.6568 15.6032 16.6872 16.5947C16.6872 16.6339 16.6872 16.6687 16.6916 16.7035C16.6959 17.0949 16.6699 17.6993 16.6003 18.0472C15.8958 18.4473 13.1343 19.8302 8.93347 19.8302C4.74999 19.8302 1.97116 18.443 1.26231 18.0429C1.19273 17.695 1.16229 17.0905 1.17099 16.6991C1.17099 16.6643 1.17534 16.6295 1.17534 16.5904C1.20578 15.5989 1.31885 14.5161 2.3321 14.1551C4.49777 13.5985 6.22856 12.3895 6.30249 12.3417C6.56776 12.1547 6.63299 11.7894 6.446 11.5241C6.259 11.2589 5.89371 11.1936 5.62844 11.3806C5.61104 11.3937 3.98897 12.5243 2.01899 13.0244C2.0016 13.0288 1.98855 13.0331 1.97551 13.0375C0.0881582 13.6854 0.0316248 15.6989 0.0055324 16.5556C0.0055324 16.5947 0.0055323 16.6295 0.00118357 16.6643C0.00118357 16.6687 0.00118357 16.673 0.00118357 16.6774C-0.00316516 16.9035 -0.00751379 18.0646 0.222969 18.6473C0.266456 18.7604 0.344733 18.8561 0.449103 18.9213C0.579564 19.0083 3.7063 21 8.93782 21C14.1693 21 17.2961 19.0039 17.4265 18.9213C17.5266 18.8561 17.6092 18.7604 17.6527 18.6473C17.8701 18.069 17.8658 16.9079 17.8614 16.6817Z" fill="#E0F0FF"/>
</svg>
