<svg width="24" height="18" viewBox="0 0 24 18" fill="none" xmlns="http://www.w3.org/2000/svg">
<path d="M12.7468 18L9.21461 16.4858V0.000335693C9.21461 0.000335693 16.8912 1.29015 17.9478 4.48605C19.0048 7.68232 17.3578 9.75247 16.7799 9.81327C15.1666 9.98151 14.5548 8.97213 14.5548 8.97213V3.81316L12.8026 3.08421L12.7468 18ZM13.6649 15.7289V17.663C13.6649 17.663 21.9809 14.9716 23.2046 13.9344C24.4285 12.8971 20.3399 10.318 18.143 10.8222C18.143 10.8222 15.8083 10.9356 13.6928 11.8595C13.6727 11.8677 13.6928 13.5974 13.6928 13.5974L19.0605 12.3363L20.9516 13.1773L13.6649 15.7289ZM8.32462 15.5888C8.32462 15.5888 7.23992 16.1493 4.82021 16.1212C2.40061 16.0928 0.258636 15.4201 0.2864 13.9626C0.314163 12.5047 4.29158 10.9066 8.2967 10.2336V12.2802L4.04138 13.4017C4.04138 13.4017 3.31287 14.3278 4.29185 14.3549C6.51684 14.4172 8.35255 13.822 8.35255 13.822L8.32462 15.5888Z" fill="#5F6770"/>
</svg>
