<svg width="24" height="18" viewBox="0 0 24 18" fill="none" xmlns="http://www.w3.org/2000/svg">
<path d="M12.4607 17.9997L8.92848 16.4854V0C8.92848 0 16.6051 1.28981 17.6617 4.48571C18.7187 7.68199 17.0716 9.75213 16.4938 9.81293C14.8804 9.98118 14.2687 8.9718 14.2687 8.9718V3.81283L12.5165 3.08388L12.4607 17.9997ZM13.3787 15.7286V17.6626C13.3787 17.6626 21.6948 14.9713 22.9185 13.9341C24.1424 12.8968 20.0538 10.3176 17.8568 10.8218C17.8568 10.8218 15.5222 10.9353 13.4067 11.8591C13.3865 11.8674 13.4067 13.5971 13.4067 13.5971L18.7744 12.336L20.6655 13.177L13.3787 15.7286ZM8.03849 15.5885C8.03849 15.5885 6.95379 16.149 4.53408 16.1208C2.11447 16.0925 -0.0274963 15.4198 0.000266936 13.9623C0.0280302 12.5044 4.00544 10.9063 8.01057 10.2333V12.2798L3.75525 13.4013C3.75525 13.4013 3.02673 14.3274 4.00571 14.3545C6.2307 14.4168 8.06642 13.8217 8.06642 13.8217L8.03849 15.5885Z" fill="#3E4E5C"/>
</svg>
