<svg width="14" height="14" viewBox="0 0 14 14" fill="none" xmlns="http://www.w3.org/2000/svg">
<path d="M13.8286 13.0057L10.4629 9.64C11.2971 8.62286 11.8 7.32 11.8 5.9C11.8 2.64286 9.15714 0 5.9 0C2.64 0 0 2.64286 0 5.9C0 9.15714 2.64 11.8 5.9 11.8C7.32 11.8 8.62 11.3 9.63714 10.4657L13.0029 13.8286C13.2314 14.0571 13.6 14.0571 13.8286 13.8286C14.0571 13.6029 14.0571 13.2314 13.8286 13.0057ZM5.9 10.6257C3.29143 10.6257 1.17143 8.50571 1.17143 5.9C1.17143 3.29429 3.29143 1.17143 5.9 1.17143C8.50571 1.17143 10.6286 3.29429 10.6286 5.9C10.6286 8.50571 8.50571 10.6257 5.9 10.6257Z" fill="#4D5C6D"/>
</svg>
