<svg width="16" height="16" viewBox="0 0 16 16" fill="none" xmlns="http://www.w3.org/2000/svg">
<path d="M12.4062 0H8.78125V16H12.4062C14.3878 16 16 14.3878 16 12.4062V3.59375C16 1.61216 14.3878 0 12.4062 0ZM12.3906 10.375C11.3482 10.375 10.5 9.52684 10.5 8.48438C10.5 7.44191 11.3482 6.59375 12.3906 6.59375C13.4331 6.59375 14.2812 7.44191 14.2812 8.48438C14.2812 9.52684 13.4331 10.375 12.3906 10.375Z" fill="#3E4E5C"/>
<path d="M7.84375 16H3.59375C1.61216 16 0 14.3878 0 12.4062V3.59375C0 1.61216 1.61216 0 3.59375 0H7.84375V16ZM3.59375 0.9375C2.12909 0.9375 0.9375 2.12909 0.9375 3.59375V12.4062C0.9375 13.8709 2.12909 15.0625 3.59375 15.0625H6.90625V0.9375H3.59375Z" fill="#3E4E5C"/>
<path d="M3.92188 6.59375C2.87941 6.59375 2.03125 5.74559 2.03125 4.70312C2.03125 3.66066 2.87941 2.8125 3.92188 2.8125C4.96434 2.8125 5.8125 3.66066 5.8125 4.70312C5.8125 5.74559 4.96434 6.59375 3.92188 6.59375Z" fill="#3E4E5C"/>
</svg>
