<svg width="34" height="10" viewBox="0 0 34 10" fill="none" xmlns="http://www.w3.org/2000/svg">
<path d="M16.4648 3.43945H14.4727V9.88086H16.4648V3.43945Z" fill="#3E4E5C"/>
<path d="M15.4688 2.44336C16.1106 2.44336 16.6309 1.92307 16.6309 1.28125C16.6309 0.639435 16.1106 0.119141 15.4688 0.119141C14.8269 0.119141 14.3066 0.639435 14.3066 1.28125C14.3066 1.92307 14.8269 2.44336 15.4688 2.44336Z" fill="#3E4E5C"/>
<path d="M20.0029 3.43945H18.0107V9.88086H20.0029V3.43945Z" fill="#3E4E5C"/>
<path d="M19.0068 2.44336C19.6487 2.44336 20.1689 1.92307 20.1689 1.28125C20.1689 0.639435 19.6487 0.119141 19.0068 0.119141C18.365 0.119141 17.8447 0.639435 17.8447 1.28125C17.8447 1.92307 18.365 2.44336 19.0068 2.44336Z" fill="#3E4E5C"/>
<path d="M11.0591 0.119208L9.56728 7.36718L8.36812 1.60478C8.19187 0.743958 7.42581 0.119141 6.54646 0.119141C5.66711 0.119141 4.90111 0.743957 4.72547 1.60159L3.52571 7.36712L2.03396 0.119208H0L1.70345 8.39535C1.8797 9.25618 2.64576 9.88093 3.52511 9.88093C4.40446 9.88093 5.17046 9.25618 5.3461 8.39847L6.54659 2.6295L7.74642 8.39535C7.92266 9.25618 8.68873 9.88093 9.56808 9.88093C10.4474 9.88093 11.2134 9.25618 11.3895 8.39635L13.0931 0.119208H11.0591Z" fill="#3E4E5C"/>
<path d="M29.1855 4.40234V0.119141H27.6914L27.0273 2.93038L27.6914 5.89648C28.5152 5.89648 29.1855 5.22631 29.1855 4.40234Z" fill="#3E4E5C"/>
<path d="M32.0078 0.119141H31.1777V4.40234C31.1777 6.32474 29.6137 7.88867 27.6914 7.88867L27.0273 8.88477L27.6914 9.88086H32.0078C33.1035 9.88086 34 8.98438 34 7.88867V2.11133C34 1.01562 33.1035 0.119141 32.0078 0.119141Z" fill="#3E4E5C"/>
<path d="M26.1973 0.119141V4.40234C26.1973 5.22625 26.8676 5.89648 27.6914 5.89648V0.119141H26.1973Z" fill="#3E4E5C"/>
<path d="M24.2051 4.40234V0.119141H23.375C22.2793 0.119141 21.3828 1.01562 21.3828 2.11133V7.88867C21.3828 8.98438 22.2793 9.88086 23.375 9.88086H27.6914V7.88867C25.7691 7.88867 24.2051 6.32474 24.2051 4.40234Z" fill="#3E4E5C"/>
</svg>
