<svg width="18" height="17" viewBox="0 0 18 17" fill="none" xmlns="http://www.w3.org/2000/svg">
<g clip-path="url(#clip0)">
<path d="M8.1025 16.965C6.71598 16.8397 5.31221 16.3697 4.10632 15.627C3.09582 15.0047 2.86763 14.7489 2.86763 14.2383C2.86763 13.2128 4.06219 11.4167 6.106 9.36904C7.26674 8.20613 8.88358 6.84303 9.05844 6.87994C9.39831 6.95169 12.1159 9.45388 13.1333 10.6318C14.742 12.4944 15.4816 14.0195 15.1059 14.6994C14.8203 15.2163 13.048 16.2265 11.7459 16.6146C10.6728 16.9344 9.26347 17.07 8.1025 16.965ZM1.50284 13.1721C0.663132 11.9561 0.238887 10.759 0.0340585 9.02755C-0.0335764 8.45583 -0.00933955 8.12881 0.18764 6.95532C0.433146 5.49274 1.31554 3.80072 2.37582 2.75942C2.8274 2.31592 2.86773 2.30512 3.41818 2.48015C4.08663 2.69271 4.80048 3.15808 5.90757 4.10301L6.5535 4.65433L6.20078 5.06336C4.56341 6.96209 2.83493 9.65347 2.18352 11.3186C1.82939 12.2238 1.68655 13.1324 1.83893 13.5107C1.9418 13.7661 1.84731 13.6709 1.50284 13.1721ZM16.2422 13.3789C16.3252 12.9967 16.2203 12.2947 15.9744 11.5866C15.4418 10.0532 13.6618 7.20059 12.0273 5.26109L11.5128 4.65053L12.0694 4.16805C12.7963 3.53807 13.3009 3.16085 13.8454 2.84051C14.2751 2.58772 14.8891 2.36394 15.1531 2.36394C15.3158 2.36394 15.8887 2.92511 16.3511 3.53754C17.0674 4.48605 17.5943 5.63586 17.8613 6.83282C18.0338 7.60622 18.0481 9.26169 17.8891 10.0332C17.7585 10.6663 17.4829 11.4876 17.2139 12.0446C17.0125 12.4619 16.5113 13.2725 16.2917 13.5362C16.1788 13.6718 16.1787 13.6715 16.2422 13.3789ZM8.25095 2.07438C7.49679 1.71288 6.33336 1.32483 5.69067 1.22043C5.46536 1.18383 5.08102 1.16342 4.83657 1.17507C4.30631 1.20035 4.32999 1.17417 5.18064 0.794819C5.88786 0.47943 6.47777 0.293967 7.27859 0.135247C8.17945 -0.0433022 9.87274 -0.0453976 10.7593 0.130939C11.7168 0.321398 12.8443 0.717454 13.4796 1.08651L13.6684 1.1962L13.2352 1.17555C12.3743 1.13451 11.1196 1.46282 9.77253 2.08162C9.36622 2.26826 9.01274 2.41733 8.98702 2.41288C8.96129 2.40843 8.63007 2.25611 8.25095 2.07438V2.07438Z" fill="#5F6770"/>
</g>
<defs>
<clipPath id="clip0">
<rect width="18" height="17" fill="white"/>
</clipPath>
</defs>
</svg>
